<svg width="14" height="16" viewBox="0 0 14 16" fill="none" xmlns="http://www.w3.org/2000/svg">
<path id="Vector" d="M11.0852 15.1667C10.507 15.1667 10.015 14.9641 9.60898 14.559C9.20299 14.1539 9 13.662 9 13.0833C9 12.9586 9.00962 12.8438 9.02885 12.739C9.04808 12.6342 9.07692 12.5155 9.11538 12.383L3.58013 8.97756C3.40385 9.22116 3.18504 9.39691 2.92371 9.50481C2.66239 9.61272 2.38226 9.66667 2.08333 9.66667C1.50463 9.66667 1.01273 9.46431 0.607646 9.05958C0.202549 8.65486 0 8.1634 0 7.58521C0 7.00703 0.202549 6.51495 0.607646 6.10898C1.01273 5.70299 1.50463 5.5 2.08333 5.5C2.37821 5.5 2.65732 5.55742 2.92067 5.67227C3.18403 5.78712 3.40385 5.9594 3.58013 6.18911L9.11538 2.78365C9.07692 2.65117 9.04808 2.53251 9.02885 2.42767C9.00962 2.32282 9 2.20804 9 2.08333C9 1.50463 9.20236 1.01273 9.60708 0.607646C10.0118 0.202548 10.5033 0 11.0814 0C11.6596 0 12.1517 0.202361 12.5577 0.607084C12.9637 1.01182 13.1667 1.50327 13.1667 2.08144C13.1667 2.65963 12.9641 3.15172 12.559 3.55769C12.1539 3.96367 11.662 4.16667 11.0833 4.16667C10.7844 4.16667 10.5043 4.11272 10.2429 4.00481C9.98162 3.89691 9.76282 3.72116 9.58654 3.47756L4.05129 6.88302C4.08975 7.01549 4.1186 7.13378 4.13783 7.23787C4.15706 7.34196 4.16667 7.45601 4.16667 7.58002C4.16667 7.70402 4.15706 7.81917 4.13783 7.92548C4.1186 8.03179 4.08975 8.15117 4.05129 8.28365L9.58654 11.6891C9.76282 11.4316 9.98162 11.2524 10.2429 11.1514C10.5043 11.0505 10.7844 11 11.0833 11C11.662 11 12.1539 11.2024 12.559 11.6071C12.9641 12.0118 13.1667 12.5033 13.1667 13.0815C13.1667 13.6596 12.9643 14.1517 12.5596 14.5577C12.1548 14.9637 11.6634 15.1667 11.0852 15.1667Z" fill="black"/>
</svg>
