<svg width="15" height="17" viewBox="0 0 15 17" fill="none" xmlns="http://www.w3.org/2000/svg">
<path id="Vector" d="M0.999999 16.8941C0.447714 16.8941 0 16.4464 0 15.8941V6.14318C0 5.829 0.147655 5.53308 0.39869 5.34416L6.89866 0.452523C7.25475 0.184545 7.7452 0.184545 8.10128 0.452523L14.6013 5.34416C14.8523 5.53308 15 5.829 15 6.14318V15.8941C15 16.4464 14.5522 16.8941 14 16.8941H10.4038C9.85154 16.8941 9.40382 16.4464 9.40382 15.8941V11.2019C9.40382 10.6496 8.95611 10.2019 8.40382 10.2019H6.59612C6.04384 10.2019 5.59613 10.6496 5.59613 11.2019V15.8941C5.59613 16.4464 5.14841 16.8941 4.59613 16.8941H0.999999Z" fill="black"/>
</svg>
