<svg width="52" height="52" viewBox="0 0 52 52" fill="none" xmlns="http://www.w3.org/2000/svg">
    <circle cx="26" cy="26" r="26" fill="#FAE300"/>
    <path fill-rule="evenodd" clip-rule="evenodd" d="M26.358 13.867c-8.337 0-15.091 5.342-15.091 11.932 0 4.29 2.863 8.049 7.16 10.152-.099.376-.25.945-.417 1.568a468.748 468.748 0 0 0-.892 3.364c-.204.82.302.81.633.589.26-.173 4.136-2.808 5.809-3.946.927.137 1.864.206 2.801.206 8.336 0 15.092-5.343 15.092-11.933S34.694 13.867 26.36 13.867h-.003zm11.093 14.775-2.287-3.004 2.066-2.068a.72.72 0 0 0-.784-1.172.72.72 0 0 0-.233.156l-2.559 2.559v-2.119a.815.815 0 1 0-1.628 0v6a.815.815 0 0 0 1.628 0v-1.852l.466-.464 2.163 2.84a.729.729 0 0 0 1.165-.876h.003zm-8.612-.248h2.053a.682.682 0 0 1 0 1.363h-3a.68.68 0 0 1-.67-.811.785.785 0 0 1-.012-.131v-5.82a.815.815 0 1 1 1.63 0v5.4zm-2.238.44-2.2-6.02-.007-.007c-.142-.367-.547-.634-1.03-.634-.538 0-.982.328-1.07.758-.015.031-.03.064-.043.099l-2.162 5.804a.73.73 0 1 0 1.376.484l.374-1.069h3.01l.375 1.072a.728.728 0 0 0 1.182.312.73.73 0 0 0 .194-.796v-.003zm-4.284-1.948L23.33 24h.032l1.011 2.884-2.055.003zm-6.447-4.601h4.414a.75.75 0 0 1 0 1.501H18.93v5.288a.736.736 0 0 1-.731.732h-.161a.734.734 0 0 1-.732-.732v-5.288H15.87a.75.75 0 1 1 0-1.501z" fill="#391B1B"/>
</svg>
