<svg width="52" height="52" viewBox="0 0 52 52" fill="none" xmlns="http://www.w3.org/2000/svg">
    <circle cx="26" cy="26" r="26" fill="#CCC"/>
    <path d="M21.038 24.886c1.596-1.608 4.379-1.608 5.975 0l.995 1.004L30 23.883l-.996-1.004a6.966 6.966 0 0 0-4.979-2.079c-1.881 0-3.65.74-4.978 2.08l-2.99 3.01A7.136 7.136 0 0 0 14 30.907c0 1.881.74 3.686 2.058 5.018a7.015 7.015 0 0 0 2.284 1.538c.854.356 1.77.539 2.695.537a6.97 6.97 0 0 0 2.695-.536 7.013 7.013 0 0 0 2.285-1.539l.996-1.003-1.992-2.007-.996 1.003a4.218 4.218 0 0 1-2.988 1.243 4.219 4.219 0 0 1-2.988-1.243 4.282 4.282 0 0 1-1.235-3.01c0-1.13.445-2.212 1.235-3.012l2.99-3.01z" fill="#fff"/>
    <path d="m25.983 16.027-.996.98 1.992 1.96.995-.98a4.27 4.27 0 0 1 2.988-1.214 4.27 4.27 0 0 1 2.988 1.214 4.133 4.133 0 0 1 1.235 2.94c0 1.103-.444 2.16-1.235 2.942l-2.988 2.94c-1.596 1.57-4.38 1.57-5.975 0l-.996-.98L22 27.789l.996.98a7.05 7.05 0 0 0 4.979 2.031 7.05 7.05 0 0 0 4.978-2.03l2.989-2.941A6.887 6.887 0 0 0 38 20.928c0-1.838-.74-3.6-2.058-4.901A7.109 7.109 0 0 0 30.962 14a7.109 7.109 0 0 0-4.98 2.027z" fill="#fff"/>
</svg>
